<mxfile host="www.draw.io" modified="2020-03-17T17:21:45.686Z" agent="Mozilla/5.0 (Macintosh; Intel Mac OS X 10_15_1) AppleWebKit/537.36 (KHTML, like Gecko) Chrome/80.0.3987.132 Safari/537.36" etag="wCEaS2-fgDqfXSMKsvEe" version="12.8.6" type="github" pages="2">
  <diagram id="cpesi-2cl9PMHLiWMdVF" name="02 - disclaimer">
    <mxGraphModel dx="751" dy="370" grid="1" gridSize="10" guides="1" tooltips="1" connect="1" arrows="1" fold="1" page="1" pageScale="1" pageWidth="1920" pageHeight="1200" math="0" shadow="0">
      <root>
        <mxCell id="iyuQr_05ihZRbdnl_HAH-0" />
        <mxCell id="iyuQr_05ihZRbdnl_HAH-1" parent="iyuQr_05ihZRbdnl_HAH-0" />
        <mxCell id="iyuQr_05ihZRbdnl_HAH-2" value="Few Notes" style="text;html=1;strokeColor=none;fillColor=none;align=center;verticalAlign=middle;whiteSpace=wrap;rounded=0;fontSize=28;fontStyle=1" vertex="1" parent="iyuQr_05ihZRbdnl_HAH-1">
          <mxGeometry x="660" y="96" width="210" height="30" as="geometry" />
        </mxCell>
        <mxCell id="iyuQr_05ihZRbdnl_HAH-4" value="Goal #1 - Get a &lt;i style=&quot;font-size: 18px;&quot;&gt;taste&lt;/i&gt; of a microservices architecture" style="rounded=0;whiteSpace=wrap;html=1;fontSize=18;align=center;fillColor=#dae8fc;strokeColor=#6c8ebf;shadow=1;" vertex="1" parent="iyuQr_05ihZRbdnl_HAH-1">
          <mxGeometry x="520" y="130" width="490" height="60" as="geometry" />
        </mxCell>
        <mxCell id="iyuQr_05ihZRbdnl_HAH-5" value="Goal #2 - Build as much as possible from scratch" style="rounded=0;whiteSpace=wrap;html=1;fontSize=18;align=center;fillColor=#dae8fc;strokeColor=#6c8ebf;shadow=1;" vertex="1" parent="iyuQr_05ihZRbdnl_HAH-1">
          <mxGeometry x="520" y="200" width="490" height="60" as="geometry" />
        </mxCell>
        <mxCell id="iyuQr_05ihZRbdnl_HAH-6" value="Goal #3 - See some &lt;i style=&quot;font-size: 18px;&quot;&gt;really big issues&lt;/i&gt;&amp;nbsp;that come up with microservices almost immediately!" style="rounded=0;whiteSpace=wrap;html=1;fontSize=18;align=center;fillColor=#dae8fc;strokeColor=#6c8ebf;shadow=1;" vertex="1" parent="iyuQr_05ihZRbdnl_HAH-1">
          <mxGeometry x="520" y="270" width="490" height="60" as="geometry" />
        </mxCell>
        <mxCell id="kvJM5hAZ0lfLLkKw4oHE-0" value="Do not use this project as a template for future microservices stuff" style="rounded=0;whiteSpace=wrap;html=1;fontSize=18;align=center;fillColor=#f8cecc;strokeColor=#b85450;shadow=1;" vertex="1" parent="iyuQr_05ihZRbdnl_HAH-1">
          <mxGeometry x="520" y="340" width="490" height="60" as="geometry" />
        </mxCell>
      </root>
    </mxGraphModel>
  </diagram>
  <diagram id="99ZDeaYZXDU0Qbmv9xaT" name="01 - mockup">
    <mxGraphModel dx="1001" dy="493" grid="1" gridSize="10" guides="1" tooltips="1" connect="1" arrows="1" fold="1" page="1" pageScale="1" pageWidth="1920" pageHeight="1200" math="0" shadow="0">
      <root>
        <mxCell id="0" />
        <mxCell id="1" parent="0" />
        <mxCell id="adwG-QhJT13sP28Hk7h6-1" value="" style="strokeWidth=1;shadow=0;dashed=0;align=center;html=1;shape=mxgraph.mockup.containers.browserWindow;rSize=0;strokeColor=#666666;strokeColor2=#008cff;strokeColor3=#c4c4c4;mainText=,;recursiveResize=0;" vertex="1" parent="1">
          <mxGeometry x="330" y="160" width="440" height="430" as="geometry" />
        </mxCell>
        <mxCell id="adwG-QhJT13sP28Hk7h6-2" value="Page 1" style="strokeWidth=1;shadow=0;dashed=0;align=center;html=1;shape=mxgraph.mockup.containers.anchor;fontSize=17;fontColor=#666666;align=left;" vertex="1" parent="adwG-QhJT13sP28Hk7h6-1">
          <mxGeometry x="60" y="12" width="110" height="26" as="geometry" />
        </mxCell>
        <mxCell id="adwG-QhJT13sP28Hk7h6-3" value="https://www.draw.io" style="strokeWidth=1;shadow=0;dashed=0;align=center;html=1;shape=mxgraph.mockup.containers.anchor;rSize=0;fontSize=17;fontColor=#666666;align=left;" vertex="1" parent="adwG-QhJT13sP28Hk7h6-1">
          <mxGeometry x="130" y="60" width="250" height="26" as="geometry" />
        </mxCell>
        <mxCell id="adwG-QhJT13sP28Hk7h6-16" value="Create Post" style="text;html=1;strokeColor=none;fillColor=none;align=left;verticalAlign=middle;whiteSpace=wrap;rounded=0;fontSize=28;" vertex="1" parent="adwG-QhJT13sP28Hk7h6-1">
          <mxGeometry x="15" y="120" width="200" height="20" as="geometry" />
        </mxCell>
        <mxCell id="adwG-QhJT13sP28Hk7h6-17" value="" style="whiteSpace=wrap;html=1;fontSize=28;align=left;" vertex="1" parent="adwG-QhJT13sP28Hk7h6-1">
          <mxGeometry x="35" y="175" width="180" height="25" as="geometry" />
        </mxCell>
        <mxCell id="adwG-QhJT13sP28Hk7h6-18" value="Submit" style="whiteSpace=wrap;html=1;fontSize=16;align=center;rounded=1;" vertex="1" parent="adwG-QhJT13sP28Hk7h6-1">
          <mxGeometry x="35" y="210" width="80" height="25" as="geometry" />
        </mxCell>
        <mxCell id="adwG-QhJT13sP28Hk7h6-19" value="Title" style="text;html=1;strokeColor=none;fillColor=none;align=left;verticalAlign=middle;whiteSpace=wrap;rounded=0;fontSize=18;" vertex="1" parent="adwG-QhJT13sP28Hk7h6-1">
          <mxGeometry x="35" y="150" width="200" height="20" as="geometry" />
        </mxCell>
        <mxCell id="adwG-QhJT13sP28Hk7h6-8" value="" style="strokeWidth=1;shadow=0;dashed=0;align=center;html=1;shape=mxgraph.mockup.containers.browserWindow;rSize=0;strokeColor=#666666;strokeColor2=#008cff;strokeColor3=#c4c4c4;mainText=,;recursiveResize=0;" vertex="1" parent="1">
          <mxGeometry x="950" y="160" width="480" height="430" as="geometry" />
        </mxCell>
        <mxCell id="adwG-QhJT13sP28Hk7h6-9" value="Page 1" style="strokeWidth=1;shadow=0;dashed=0;align=center;html=1;shape=mxgraph.mockup.containers.anchor;fontSize=17;fontColor=#666666;align=left;" vertex="1" parent="adwG-QhJT13sP28Hk7h6-8">
          <mxGeometry x="60" y="12" width="110" height="26" as="geometry" />
        </mxCell>
        <mxCell id="adwG-QhJT13sP28Hk7h6-10" value="https://www.draw.io" style="strokeWidth=1;shadow=0;dashed=0;align=center;html=1;shape=mxgraph.mockup.containers.anchor;rSize=0;fontSize=17;fontColor=#666666;align=left;" vertex="1" parent="adwG-QhJT13sP28Hk7h6-8">
          <mxGeometry x="130" y="60" width="250" height="26" as="geometry" />
        </mxCell>
        <mxCell id="adwG-QhJT13sP28Hk7h6-11" value="Create Post" style="text;html=1;strokeColor=none;fillColor=none;align=left;verticalAlign=middle;whiteSpace=wrap;rounded=0;fontSize=28;" vertex="1" parent="adwG-QhJT13sP28Hk7h6-8">
          <mxGeometry x="20" y="120" width="200" height="20" as="geometry" />
        </mxCell>
        <mxCell id="adwG-QhJT13sP28Hk7h6-12" value="" style="whiteSpace=wrap;html=1;fontSize=28;align=left;" vertex="1" parent="adwG-QhJT13sP28Hk7h6-8">
          <mxGeometry x="40" y="175" width="180" height="25" as="geometry" />
        </mxCell>
        <mxCell id="adwG-QhJT13sP28Hk7h6-13" value="Title" style="text;html=1;strokeColor=none;fillColor=none;align=left;verticalAlign=middle;whiteSpace=wrap;rounded=0;fontSize=18;" vertex="1" parent="adwG-QhJT13sP28Hk7h6-8">
          <mxGeometry x="40" y="150" width="200" height="20" as="geometry" />
        </mxCell>
        <mxCell id="adwG-QhJT13sP28Hk7h6-14" value="Submit" style="whiteSpace=wrap;html=1;fontSize=16;align=center;rounded=1;" vertex="1" parent="adwG-QhJT13sP28Hk7h6-8">
          <mxGeometry x="40" y="210" width="80" height="25" as="geometry" />
        </mxCell>
        <mxCell id="adwG-QhJT13sP28Hk7h6-20" value="" style="endArrow=none;html=1;fontSize=16;" edge="1" parent="adwG-QhJT13sP28Hk7h6-8">
          <mxGeometry width="50" height="50" relative="1" as="geometry">
            <mxPoint x="20" y="250" as="sourcePoint" />
            <mxPoint x="440" y="250" as="targetPoint" />
          </mxGeometry>
        </mxCell>
        <mxCell id="adwG-QhJT13sP28Hk7h6-21" value="" style="rounded=0;whiteSpace=wrap;html=1;fontSize=16;align=center;fillColor=#dae8fc;strokeColor=#6c8ebf;" vertex="1" parent="adwG-QhJT13sP28Hk7h6-8">
          <mxGeometry x="25" y="260" width="215" height="160" as="geometry" />
        </mxCell>
        <mxCell id="adwG-QhJT13sP28Hk7h6-22" value="My Post" style="text;html=1;strokeColor=none;fillColor=none;align=left;verticalAlign=middle;whiteSpace=wrap;rounded=0;fontSize=28;" vertex="1" parent="adwG-QhJT13sP28Hk7h6-8">
          <mxGeometry x="30" y="270" width="200" height="20" as="geometry" />
        </mxCell>
        <mxCell id="adwG-QhJT13sP28Hk7h6-23" value="&lt;i&gt;0 comments&lt;/i&gt;" style="text;html=1;strokeColor=none;fillColor=none;align=center;verticalAlign=middle;whiteSpace=wrap;rounded=0;fontSize=16;" vertex="1" parent="adwG-QhJT13sP28Hk7h6-8">
          <mxGeometry x="30" y="300" width="100" height="20" as="geometry" />
        </mxCell>
        <mxCell id="adwG-QhJT13sP28Hk7h6-28" value="" style="whiteSpace=wrap;html=1;fontSize=28;align=left;" vertex="1" parent="adwG-QhJT13sP28Hk7h6-8">
          <mxGeometry x="40" y="361" width="180" height="25" as="geometry" />
        </mxCell>
        <mxCell id="adwG-QhJT13sP28Hk7h6-29" value="Comment" style="text;html=1;strokeColor=none;fillColor=none;align=left;verticalAlign=middle;whiteSpace=wrap;rounded=0;fontSize=15;" vertex="1" parent="adwG-QhJT13sP28Hk7h6-8">
          <mxGeometry x="40" y="342" width="200" height="20" as="geometry" />
        </mxCell>
        <mxCell id="adwG-QhJT13sP28Hk7h6-30" value="Submit" style="whiteSpace=wrap;html=1;fontSize=16;align=center;rounded=1;" vertex="1" parent="adwG-QhJT13sP28Hk7h6-8">
          <mxGeometry x="40" y="390" width="80" height="25" as="geometry" />
        </mxCell>
        <mxCell id="adwG-QhJT13sP28Hk7h6-31" value="" style="strokeWidth=1;shadow=0;dashed=0;align=center;html=1;shape=mxgraph.mockup.containers.browserWindow;rSize=0;strokeColor=#666666;strokeColor2=#008cff;strokeColor3=#c4c4c4;mainText=,;recursiveResize=0;" vertex="1" parent="1">
          <mxGeometry x="1490" y="160" width="480" height="430" as="geometry" />
        </mxCell>
        <mxCell id="adwG-QhJT13sP28Hk7h6-32" value="Page 1" style="strokeWidth=1;shadow=0;dashed=0;align=center;html=1;shape=mxgraph.mockup.containers.anchor;fontSize=17;fontColor=#666666;align=left;" vertex="1" parent="adwG-QhJT13sP28Hk7h6-31">
          <mxGeometry x="60" y="12" width="110" height="26" as="geometry" />
        </mxCell>
        <mxCell id="adwG-QhJT13sP28Hk7h6-33" value="https://www.draw.io" style="strokeWidth=1;shadow=0;dashed=0;align=center;html=1;shape=mxgraph.mockup.containers.anchor;rSize=0;fontSize=17;fontColor=#666666;align=left;" vertex="1" parent="adwG-QhJT13sP28Hk7h6-31">
          <mxGeometry x="130" y="60" width="250" height="26" as="geometry" />
        </mxCell>
        <mxCell id="adwG-QhJT13sP28Hk7h6-34" value="Create Post" style="text;html=1;strokeColor=none;fillColor=none;align=left;verticalAlign=middle;whiteSpace=wrap;rounded=0;fontSize=28;" vertex="1" parent="adwG-QhJT13sP28Hk7h6-31">
          <mxGeometry x="20" y="120" width="200" height="20" as="geometry" />
        </mxCell>
        <mxCell id="adwG-QhJT13sP28Hk7h6-35" value="" style="whiteSpace=wrap;html=1;fontSize=28;align=left;" vertex="1" parent="adwG-QhJT13sP28Hk7h6-31">
          <mxGeometry x="40" y="175" width="180" height="25" as="geometry" />
        </mxCell>
        <mxCell id="adwG-QhJT13sP28Hk7h6-36" value="Title" style="text;html=1;strokeColor=none;fillColor=none;align=left;verticalAlign=middle;whiteSpace=wrap;rounded=0;fontSize=18;" vertex="1" parent="adwG-QhJT13sP28Hk7h6-31">
          <mxGeometry x="40" y="150" width="200" height="20" as="geometry" />
        </mxCell>
        <mxCell id="adwG-QhJT13sP28Hk7h6-37" value="Submit" style="whiteSpace=wrap;html=1;fontSize=16;align=center;rounded=1;" vertex="1" parent="adwG-QhJT13sP28Hk7h6-31">
          <mxGeometry x="40" y="210" width="80" height="25" as="geometry" />
        </mxCell>
        <mxCell id="adwG-QhJT13sP28Hk7h6-38" value="" style="endArrow=none;html=1;fontSize=16;" edge="1" parent="adwG-QhJT13sP28Hk7h6-31">
          <mxGeometry width="50" height="50" relative="1" as="geometry">
            <mxPoint x="20" y="240" as="sourcePoint" />
            <mxPoint x="440" y="240" as="targetPoint" />
          </mxGeometry>
        </mxCell>
        <mxCell id="adwG-QhJT13sP28Hk7h6-39" value="" style="rounded=0;whiteSpace=wrap;html=1;fontSize=16;align=center;fillColor=#dae8fc;strokeColor=#6c8ebf;" vertex="1" parent="adwG-QhJT13sP28Hk7h6-31">
          <mxGeometry x="25" y="250" width="215" height="170" as="geometry" />
        </mxCell>
        <mxCell id="adwG-QhJT13sP28Hk7h6-40" value="My Post" style="text;html=1;strokeColor=none;fillColor=none;align=left;verticalAlign=middle;whiteSpace=wrap;rounded=0;fontSize=28;" vertex="1" parent="adwG-QhJT13sP28Hk7h6-31">
          <mxGeometry x="30" y="260" width="200" height="20" as="geometry" />
        </mxCell>
        <mxCell id="adwG-QhJT13sP28Hk7h6-41" value="&lt;i&gt;1 comments&lt;/i&gt;" style="text;html=1;strokeColor=none;fillColor=none;align=center;verticalAlign=middle;whiteSpace=wrap;rounded=0;fontSize=16;" vertex="1" parent="adwG-QhJT13sP28Hk7h6-31">
          <mxGeometry x="30" y="285" width="100" height="20" as="geometry" />
        </mxCell>
        <mxCell id="adwG-QhJT13sP28Hk7h6-46" value="&lt;ul&gt;&lt;li&gt;Im a comment!&lt;/li&gt;&lt;/ul&gt;" style="text;html=1;strokeColor=none;fillColor=none;align=left;verticalAlign=middle;whiteSpace=wrap;rounded=0;fontSize=18;" vertex="1" parent="adwG-QhJT13sP28Hk7h6-31">
          <mxGeometry x="40" y="310" width="200" height="20" as="geometry" />
        </mxCell>
        <mxCell id="adwG-QhJT13sP28Hk7h6-47" value="" style="whiteSpace=wrap;html=1;fontSize=28;align=left;" vertex="1" parent="adwG-QhJT13sP28Hk7h6-31">
          <mxGeometry x="32.5" y="359" width="180" height="25" as="geometry" />
        </mxCell>
        <mxCell id="adwG-QhJT13sP28Hk7h6-48" value="Comment" style="text;html=1;strokeColor=none;fillColor=none;align=left;verticalAlign=middle;whiteSpace=wrap;rounded=0;fontSize=15;" vertex="1" parent="adwG-QhJT13sP28Hk7h6-31">
          <mxGeometry x="32.5" y="340" width="200" height="20" as="geometry" />
        </mxCell>
        <mxCell id="adwG-QhJT13sP28Hk7h6-49" value="Submit" style="whiteSpace=wrap;html=1;fontSize=16;align=center;rounded=1;" vertex="1" parent="adwG-QhJT13sP28Hk7h6-31">
          <mxGeometry x="32.5" y="388" width="80" height="25" as="geometry" />
        </mxCell>
        <mxCell id="adwG-QhJT13sP28Hk7h6-50" value="" style="strokeWidth=1;shadow=0;dashed=0;align=center;html=1;shape=mxgraph.mockup.containers.browserWindow;rSize=0;strokeColor=#666666;strokeColor2=#008cff;strokeColor3=#c4c4c4;mainText=,;recursiveResize=0;" vertex="1" parent="1">
          <mxGeometry x="2010" y="160" width="480" height="430" as="geometry" />
        </mxCell>
        <mxCell id="adwG-QhJT13sP28Hk7h6-51" value="Page 1" style="strokeWidth=1;shadow=0;dashed=0;align=center;html=1;shape=mxgraph.mockup.containers.anchor;fontSize=17;fontColor=#666666;align=left;" vertex="1" parent="adwG-QhJT13sP28Hk7h6-50">
          <mxGeometry x="60" y="12" width="110" height="26" as="geometry" />
        </mxCell>
        <mxCell id="adwG-QhJT13sP28Hk7h6-52" value="https://www.draw.io" style="strokeWidth=1;shadow=0;dashed=0;align=center;html=1;shape=mxgraph.mockup.containers.anchor;rSize=0;fontSize=17;fontColor=#666666;align=left;" vertex="1" parent="adwG-QhJT13sP28Hk7h6-50">
          <mxGeometry x="130" y="60" width="250" height="26" as="geometry" />
        </mxCell>
        <mxCell id="adwG-QhJT13sP28Hk7h6-53" value="Create Post" style="text;html=1;strokeColor=none;fillColor=none;align=left;verticalAlign=middle;whiteSpace=wrap;rounded=0;fontSize=28;" vertex="1" parent="adwG-QhJT13sP28Hk7h6-50">
          <mxGeometry x="20" y="120" width="200" height="20" as="geometry" />
        </mxCell>
        <mxCell id="adwG-QhJT13sP28Hk7h6-54" value="" style="whiteSpace=wrap;html=1;fontSize=28;align=left;" vertex="1" parent="adwG-QhJT13sP28Hk7h6-50">
          <mxGeometry x="40" y="175" width="180" height="25" as="geometry" />
        </mxCell>
        <mxCell id="adwG-QhJT13sP28Hk7h6-55" value="Title" style="text;html=1;strokeColor=none;fillColor=none;align=left;verticalAlign=middle;whiteSpace=wrap;rounded=0;fontSize=18;" vertex="1" parent="adwG-QhJT13sP28Hk7h6-50">
          <mxGeometry x="40" y="150" width="200" height="20" as="geometry" />
        </mxCell>
        <mxCell id="adwG-QhJT13sP28Hk7h6-56" value="Submit" style="whiteSpace=wrap;html=1;fontSize=16;align=center;rounded=1;" vertex="1" parent="adwG-QhJT13sP28Hk7h6-50">
          <mxGeometry x="40" y="210" width="80" height="25" as="geometry" />
        </mxCell>
        <mxCell id="adwG-QhJT13sP28Hk7h6-57" value="" style="endArrow=none;html=1;fontSize=16;" edge="1" parent="adwG-QhJT13sP28Hk7h6-50">
          <mxGeometry width="50" height="50" relative="1" as="geometry">
            <mxPoint x="20" y="240" as="sourcePoint" />
            <mxPoint x="440" y="240" as="targetPoint" />
          </mxGeometry>
        </mxCell>
        <mxCell id="adwG-QhJT13sP28Hk7h6-58" value="" style="rounded=0;whiteSpace=wrap;html=1;fontSize=16;align=center;fillColor=#dae8fc;strokeColor=#6c8ebf;" vertex="1" parent="adwG-QhJT13sP28Hk7h6-50">
          <mxGeometry x="25" y="250" width="215" height="170" as="geometry" />
        </mxCell>
        <mxCell id="adwG-QhJT13sP28Hk7h6-59" value="My Post" style="text;html=1;strokeColor=none;fillColor=none;align=left;verticalAlign=middle;whiteSpace=wrap;rounded=0;fontSize=28;" vertex="1" parent="adwG-QhJT13sP28Hk7h6-50">
          <mxGeometry x="30" y="260" width="200" height="20" as="geometry" />
        </mxCell>
        <mxCell id="adwG-QhJT13sP28Hk7h6-60" value="&lt;i&gt;1 comments&lt;/i&gt;" style="text;html=1;strokeColor=none;fillColor=none;align=center;verticalAlign=middle;whiteSpace=wrap;rounded=0;fontSize=16;" vertex="1" parent="adwG-QhJT13sP28Hk7h6-50">
          <mxGeometry x="30" y="285" width="100" height="20" as="geometry" />
        </mxCell>
        <mxCell id="adwG-QhJT13sP28Hk7h6-61" value="&lt;ul&gt;&lt;li&gt;Im a comment!&lt;/li&gt;&lt;/ul&gt;" style="text;html=1;strokeColor=none;fillColor=none;align=left;verticalAlign=middle;whiteSpace=wrap;rounded=0;fontSize=18;" vertex="1" parent="adwG-QhJT13sP28Hk7h6-50">
          <mxGeometry x="40" y="310" width="200" height="20" as="geometry" />
        </mxCell>
        <mxCell id="adwG-QhJT13sP28Hk7h6-62" value="" style="whiteSpace=wrap;html=1;fontSize=28;align=left;" vertex="1" parent="adwG-QhJT13sP28Hk7h6-50">
          <mxGeometry x="32.5" y="359" width="180" height="25" as="geometry" />
        </mxCell>
        <mxCell id="adwG-QhJT13sP28Hk7h6-63" value="Comment" style="text;html=1;strokeColor=none;fillColor=none;align=left;verticalAlign=middle;whiteSpace=wrap;rounded=0;fontSize=15;" vertex="1" parent="adwG-QhJT13sP28Hk7h6-50">
          <mxGeometry x="32.5" y="340" width="200" height="20" as="geometry" />
        </mxCell>
        <mxCell id="adwG-QhJT13sP28Hk7h6-64" value="Submit" style="whiteSpace=wrap;html=1;fontSize=16;align=center;rounded=1;" vertex="1" parent="adwG-QhJT13sP28Hk7h6-50">
          <mxGeometry x="32.5" y="388" width="80" height="25" as="geometry" />
        </mxCell>
        <mxCell id="adwG-QhJT13sP28Hk7h6-65" value="" style="rounded=0;whiteSpace=wrap;html=1;fontSize=16;align=center;fillColor=#dae8fc;strokeColor=#6c8ebf;" vertex="1" parent="adwG-QhJT13sP28Hk7h6-50">
          <mxGeometry x="250" y="250" width="215" height="170" as="geometry" />
        </mxCell>
        <mxCell id="adwG-QhJT13sP28Hk7h6-66" value="Post #2" style="text;html=1;strokeColor=none;fillColor=none;align=left;verticalAlign=middle;whiteSpace=wrap;rounded=0;fontSize=28;" vertex="1" parent="adwG-QhJT13sP28Hk7h6-50">
          <mxGeometry x="255" y="260" width="200" height="20" as="geometry" />
        </mxCell>
        <mxCell id="adwG-QhJT13sP28Hk7h6-67" value="&lt;i&gt;1 comments&lt;/i&gt;" style="text;html=1;strokeColor=none;fillColor=none;align=center;verticalAlign=middle;whiteSpace=wrap;rounded=0;fontSize=16;" vertex="1" parent="adwG-QhJT13sP28Hk7h6-50">
          <mxGeometry x="255" y="285" width="100" height="20" as="geometry" />
        </mxCell>
        <mxCell id="adwG-QhJT13sP28Hk7h6-68" value="&lt;ul&gt;&lt;li&gt;Im a comment!&lt;/li&gt;&lt;/ul&gt;" style="text;html=1;strokeColor=none;fillColor=none;align=left;verticalAlign=middle;whiteSpace=wrap;rounded=0;fontSize=18;" vertex="1" parent="adwG-QhJT13sP28Hk7h6-50">
          <mxGeometry x="265" y="310" width="200" height="20" as="geometry" />
        </mxCell>
        <mxCell id="adwG-QhJT13sP28Hk7h6-69" value="" style="whiteSpace=wrap;html=1;fontSize=28;align=left;" vertex="1" parent="adwG-QhJT13sP28Hk7h6-50">
          <mxGeometry x="257.5" y="359" width="180" height="25" as="geometry" />
        </mxCell>
        <mxCell id="adwG-QhJT13sP28Hk7h6-70" value="Comment" style="text;html=1;strokeColor=none;fillColor=none;align=left;verticalAlign=middle;whiteSpace=wrap;rounded=0;fontSize=15;" vertex="1" parent="adwG-QhJT13sP28Hk7h6-50">
          <mxGeometry x="257.5" y="340" width="200" height="20" as="geometry" />
        </mxCell>
        <mxCell id="adwG-QhJT13sP28Hk7h6-71" value="Submit" style="whiteSpace=wrap;html=1;fontSize=16;align=center;rounded=1;" vertex="1" parent="adwG-QhJT13sP28Hk7h6-50">
          <mxGeometry x="257.5" y="388" width="80" height="25" as="geometry" />
        </mxCell>
      </root>
    </mxGraphModel>
  </diagram>
</mxfile>
